<svg xmlns="http://www.w3.org/2000/svg" version="1.2" viewBox="108 156 863.53 768"><style>.a{fill:#092332}</style><path fill-rule="evenodd" class="a" d="m765.7 463.4c20.4 73.7 9.4 155.9-37.2 224.7-36.8 54.5-89.7 91.4-147.8 108.7-20.9 6.2-42.5 9.9-64.2 10.9q-4.7 10-7.8 20.7c-7.8 27.3-5.9 54 3.9 77.7l209.2 5v0.1l-533.3 12.8h-34.2c-10.2 0-19.5-1.4-26.2-3.8-6.6-2.3-10.7-5.6-10.7-9.1v-0.1c0-7.1 16.5-12.9 36.9-12.9h26.7l187.9 4.5c-6.8-24.1-7-50 0.5-76.3 4.5-15.7 11.4-30.5 20.5-44.3-11.5-5.5-22.6-11.9-33.5-19.2-38.1-25.8-67.4-59.9-87-98.4l-132.7 185.2-28.7-24 144.7-202.1 29.8-41.5 193.7-270.5 29.9-41.7 31.9-44.6 19.1-26.7 0.1-0.1c19.4-21 45.5-35.7 74.9-40.6q10.7-1.8 22-1.8c70.9 0 128.8 56 131.7 126.3l32.5 23.7q1.6-0.3 3.3-0.4c9.2-0.3 22.8 4.4 39.3 13.8 8.4 4.8 17.9 11 27.6 18.1 18.9-11.6 42.6-28.7 72.1-52.9l4.5 3.5c-29.6 24.1-53.1 41.2-72.1 52.9 23.2 17.8 47 40.9 61.8 64.3 15.8 25.4 20.5 51.1 13.7 72.6q-1.4-1.8-2.8-3.6-0.7-1-1.4-1.9c5.3-20.3 0.6-44-14-67.3-13.9-22-37.2-44.8-60-62.4-44.4 27-62 23.9-71.7 17.7-6-4-10.7-10.8-13.2-19.1l-30.8 0.3c-8.9 19.8-22.4 37-39.2 50.2q-0.9-0.3-1.8-0.6 0.1 0.2 0.3 0.4l0.1 0.2 0.2 0.4 0.2 0.3c14 22.1 24.5 46 31.3 70.9zm41.7-150.2c-1 0.2-1.7 0.6-2.1 0.7-3.1 1.5-5.5 4.8-5.5 8.6 0 3.1 1.4 5.9 3.7 7.6-0.2-6.3 0.9-12.4 3.9-16.9zm1.9 18.8c5.2 0 9.4-4.2 9.4-9.5 0-3.7-2.2-6.5-4.9-8-3.8 4.2-5.4 10.6-5.2 17.5q0.3 0 0.7 0zm11 26c8.6 5.5 26.9 4.8 65.5-18.7h-0.1c-9-6.8-18-12.6-26-17.2-15.1-8.5-27.3-12.9-35.2-12.5q-0.6 0-1.1 0.1l42.3 30.9-55.7 0.6c2 7.4 5.9 13.8 10.3 16.8zm-411.2 473.7c-7.2 25.1-6.1 49.7 1.7 71.9l59.6 1.4c-8.5-25.7-9.5-53.7-1.4-82.1q2.4-8.4 5.8-16.5c-16.7-1.9-33.3-5.3-49.6-10.4-7 11.1-12.5 23-16.1 35.7zm40.4-70.2c15.5 4 31.4 6.3 47.3 7-15.9-0.7-31.8-3-47.3-7.1-44.3-73.6-40.2-178.3 17.7-264.6 31-46.1 72.6-79.7 117.5-99 29.7-12.7 60.8-19.1 91.2-18.7v0.1c13.3-3.2 25.5-9.2 35.9-17.4 22-17.2 36.1-43.9 36.1-73.9 0-51.8-42-93.8-93.8-93.8-28.8 0-54.5 12.9-71.7 33.2l-0.1 0.1c-3.3 3.9-6.2 8-8.8 12.3v0.1l-23.5 32.7-26.1 36.5-0.3 0.5-227.8 318c16.4 40.1 44.5 76 83 102.1 22.2 15 46.1 25.6 70.7 31.9zm51.4-242.3c-57.8 86-52.9 192.3 8.6 246.1h36c59.6-10.3 115.2-44.1 151.9-98.3 49.6-73.5 51.5-165.1 12.6-237.9q-0.7-1.3-1.4-2.5c-69.6-20.8-155.7 15.3-207.7 92.6zm-308.7 392c0-5.2-13.8-9.4-30.9-9.4-17.1 0-31 4.2-31 9.4 0 5.3 13.9 9.5 31 9.5 17.1 0 30.9-4.2 30.9-9.5z"/></svg>